<svg width="33" height="33" viewBox="0 0 33 33" fill="none" xmlns="http://www.w3.org/2000/svg">
<circle cx="16.5" cy="16.5" r="16.5" fill="#D1F2F0"/>
<path d="M13.4327 8.37693L20.5616 15.4846C20.6462 15.5692 20.7063 15.6609 20.7418 15.7596C20.7773 15.8583 20.7948 15.9641 20.7943 16.0769C20.7943 16.1898 20.7768 16.2955 20.7418 16.3942C20.7068 16.493 20.6468 16.5846 20.5616 16.6692L13.4327 23.7981C13.2353 23.9955 12.9885 24.0942 12.6923 24.0942C12.3962 24.0942 12.1423 23.9885 11.9308 23.7769C11.7193 23.5654 11.6135 23.3186 11.6135 23.0365C11.6135 22.7545 11.7193 22.5077 11.9308 22.2962L18.15 16.0769L11.9308 9.8577C11.7334 9.66026 11.6347 9.41685 11.6347 9.12747C11.6347 8.83809 11.7404 8.5879 11.952 8.37693C12.1635 8.16539 12.4103 8.05962 12.6923 8.05962C12.9744 8.05962 13.2212 8.16539 13.4327 8.37693Z" fill="#19C1B6"/>
</svg>
