<svg width="130" height="87" viewBox="0 0 130 87" fill="none" xmlns="http://www.w3.org/2000/svg">
<path d="M31.4817 59.2278L33.3782 55H28.7444C14.5422 55 3 43.3242 3 29C3 14.6955 14.6672 3 28.8889 3C43.1106 3 54.7778 14.6955 54.7778 29C54.7778 54.7111 37.2349 76.2746 13.519 82.3138C19.567 77.5295 26.5969 70.1173 31.4817 59.2278ZM127 29C127 54.7115 109.457 76.2753 85.7401 82.3141C91.7882 77.5299 98.8185 70.1176 103.704 59.228L105.601 55H100.967C86.7645 55 75.2222 43.3232 75.2222 29C75.2222 14.6955 86.8894 3 101.111 3C115.333 3 127 14.6955 127 29Z" stroke="white" stroke-width="6"/>
</svg>
